#!OML:ASF G:\JayActor3\Patient Classification 1\Patient 1\Session 5\male.ASF
:FULLY-SPECIFIED
:DEGREES
512
root 24.4116 17.6478 -6.53632 662.802 -85.6136 -648.888
lowerback 19.8908 -1.72241 -1.96379
upperback 8.22719 -3.26969 -2.86141
thorax -2.30013 -1.83641 -1.21639
lowerneck 6.97339 0.638345 3.30428
upperneck -21.5566 1.31351 1.68933
head -7.78031 -8.53492e-005 -0.0861889
rclavicle 1.90833e-014 5.36719e-014
rhumerus -33.2936 -5.45335 -87.7288
rradius 28.6104
rwrist 4.74719
rhand -21.7243 -10.3924
rfingers 7.12502
rthumb 4.67497 -40.3208
lclavicle 1.90833e-014 5.36719e-014
lhumerus -35.6037 4.86213 82.6171
lradius 29.9136
lwrist 20.2537
lhand -21.2977 14.7761
lfingers 7.12502
lthumb 5.08687 44.6951
rfemur -53.1477 0.142338 16.8361
rtibia 30.7281
rfoot 22.8989 -24.4212
rtoes 23.0945
lfemur 6.64411 14.6838 -26.9573
ltibia -2.8625e-014
lfoot 26.2736 -5.06603
ltoes -25.253
513
root 24.2121 17.5989 -6.55199 665.584 -85.1964 -651.791
lowerback 19.7917 -1.78802 -2.10882
upperback 8.2666 -3.37521 -2.86136
thorax -2.20015 -1.892 -1.11734
lowerneck 6.98737 0.592256 3.29663
upperneck -21.5143 1.24434 1.66007
head -7.76903 -0.0274012 -0.0888313
rclavicle -1.98785e-014 2.42517e-014
rhumerus -33.3664 -5.59759 -87.6052
rradius 28.4827
rwrist 4.83518
rhand -21.7532 -10.3872
rfingers 7.12502
rthumb 4.64707 -40.3162
lclavicle -1.98785e-014 2.42517e-014
lhumerus -35.7451 4.81132 82.6708
lradius 29.9509
lwrist 20.2359
lhand -21.2564 14.7571
lfingers 7.12502
lthumb 5.12678 44.6751
rfemur -52.9857 0.0293367 16.6008
rtibia 31.358
rfoot 23.1177 -24.5227
rtoes 23.4764
lfemur 7.46391 14.2971 -26.8432
ltibia -2.22639e-014
lfoot 26.6259 -4.67007
ltoes -24.4937
514
root 24.0087 17.5458 -6.56728 668.077 -84.7767 -654.396
lowerback 19.668 -1.8592 -2.22864
upperback 8.29866 -3.48114 -2.85809
thorax -2.0962 -1.94711 -1.03028
lowerneck 6.99599 0.541661 3.28304
upperneck -21.45 1.16901 1.63567
head -7.74963 -0.056776 -0.0884054
rclavicle -4.25399e-014 -3.97569e-014
rhumerus -33.4581 -5.72356 -87.4847
rradius 28.3575
rwrist 4.928
rhand -21.7773 -10.3752
rfingers 7.12502
rthumb 4.62377 -40.3047
lclavicle -4.25399e-014 -3.97569e-014
lhumerus -35.9028 4.78422 82.7058
lradius 29.981
lwrist 20.2222
lhand -21.212 14.7203
lfingers 7.12502
lthumb 5.16964 44.6372
rfemur -52.7842 -0.0583716 16.3647
rtibia 32.1009
rfoot 23.0343 -24.526
rtoes 23.8066
lfemur 8.28433 13.8975 -26.7155
ltibia 3.18055e-015
lfoot 26.9963 -4.19336
ltoes -23.5799
515
root 23.8019 17.4884 -6.58178 670.282 -84.3546 -656.707
lowerback 19.5301 -1.93429 -2.3222
upperback 8.32483 -3.58605 -2.85417
thorax -1.99232 -2.00104 -0.958515
lowerneck 6.99887 0.489203 3.25889
upperneck -21.3681 1.09067 1.61704
head -7.72347 -0.0866074 -0.0841079
rclavicle 1.78906e-014 -1.11319e-014
rhumerus -33.5625 -5.82389 -87.3686
rradius 28.2327
rwrist 5.0136
rhand -21.7881 -10.3594
rfingers 7.12502
rthumb 4.61334 -40.2892
lclavicle 1.78906e-014 -1.11319e-014
lhumerus -36.0701 4.78257 82.7213
lradius 29.9972
lwrist 20.2157
lhand -21.1702 14.6697
lfingers 7.12502
lthumb 5.21004 44.5857
rfemur -52.5428 -0.126265 16.1294
rtibia 32.9685
rfoot 22.5276 -24.3262
rtoes 23.9233
lfemur 9.11172 13.4897 -26.5773
ltibia 3.49861e-014
lfoot 27.3842 -3.62601
ltoes -22.4772
516
root 23.5921 17.4266 -6.59597 672.162 -83.9352 -658.684
lowerback 19.3746 -2.00561 -2.39966
upperback 8.34581 -3.68187 -2.85026
thorax -1.88551 -2.05005 -0.898839
lowerneck 6.99056 0.428937 3.23552
upperneck -21.2673 1.00033 1.59443
head -7.6891 -0.121212 -0.0802807
rclavicle 3.06128e-014 -1.19271e-014
rhumerus -33.68 -5.91094 -87.2552
rradius 28.114
rwrist 5.0935
rhand -21.7767 -10.3533
rfingers 7.12502
rthumb 4.62443 -40.2828
lclavicle 3.06128e-014 -1.19271e-014
lhumerus -36.2411 4.80705 82.716
lradius 29.9949
lwrist 20.2179
lhand -21.133 14.6283
lfingers 7.12502
lthumb 5.24596 44.5433
rfemur -52.2679 -0.173736 15.9019
rtibia 33.9722
rfoot 21.5353 -23.6481
rtoes 23.6806
lfemur 9.9427 13.0841 -26.4315
ltibia 2.8625e-014
lfoot 27.785 -2.96511
ltoes -21.1476
517
root 23.3804 17.3611 -6.60941 673.784 -83.5248 -660.4
lowerback 19.2113 -2.07511 -2.45446
upperback 8.35969 -3.7706 -2.84778
thorax -1.78352 -2.09485 -0.855485
lowerneck 6.97854 0.365882 3.21069
upperneck -21.1537 0.905839 1.57111
head -7.64989 -0.157185 -0.0761706
rclavicle -2.42517e-014 -3.10104e-014
rhumerus -33.8093 -5.98079 -87.1461
rradius 27.9984
rwrist 5.16005
rhand -21.7491 -10.3297
rfingers 7.12502
rthumb 4.65106 -40.2586
lclavicle -2.42517e-014 -3.10104e-014
lhumerus -36.4102 4.87043 82.6822
lradius 29.9615
lwrist 20.2244
lhand -21.0935 14.6099
lfingers 7.12502
lthumb 5.28409 44.524
rfemur -51.9631 -0.229036 15.7077
rtibia 35.1117
rfoot 20.1273 -22.2999
rtoes 22.8779
lfemur 10.7755 12.684 -26.275
ltibia 1.59028e-014
lfoot 28.1951 -2.26016
ltoes -19.6801
518
root 23.1688 17.2939 -6.62172 675.168 -83.1354 -661.869
lowerback 19.0591 -2.14117 -2.4767
upperback 8.36055 -3.8495 -2.84852
thorax -1.70327 -2.13349 -0.835208
lowerneck 6.9724 0.301669 3.18421
upperneck -21.0414 0.810363 1.54932
head -7.61229 -0.193744 -0.0712459
rclavicle 1.94809e-014 -1.35174e-014
rhumerus -33.9511 -6.04556 -87.0403
rradius 27.8888
rwrist 5.21158
rhand -21.7009 -10.3079
rfingers 7.12502
rthumb 4.69757 -40.2358
lclavicle 1.94809e-014 -1.35174e-014
lhumerus -36.5725 4.9735 82.6178
lradius 29.891
lwrist 20.227
lhand -21.0598 14.6131
lfingers 7.12502
lthumb 5.31658 44.5265
rfemur -51.6479 -0.307063 15.5699
rtibia 36.3716
rfoot 18.424 -20.304
rtoes 21.469
lfemur 11.5905 12.3007 -26.1087
ltibia 5.08889e-014
lfoot 28.6459 -1.57592
ltoes -18.2652
519
root 22.9609 17.2275 -6.63339 676.555 -82.76 -663.297
lowerback 18.9244 -2.21518 -2.45614
upperback 8.33321 -3.93103 -2.84892
thorax -1.66485 -2.17106 -0.836487
lowerneck 6.96817 0.23879 3.15565
upperneck -20.9356 0.717379 1.53162
head -7.57721 -0.229671 -0.0648556
rclavicle -1.90833e-014 -1.27222e-014
rhumerus -34.0986 -6.10783 -86.9395
rradius 27.7822
rwrist 5.25411
rhand -21.637 -10.2791
rfingers 7.12502
rthumb 4.75933 -40.2056
lclavicle -1.90833e-014 -1.27222e-014
lhumerus -36.7261 5.1168 82.5222
lradius 29.783
lwrist 20.2181
lhand -21.0424 14.6409
lfingers 7.12502
lthumb 5.33345 44.5538
rfemur -51.3803 -0.425887 15.4982
rtibia 37.7172
rfoot 16.5386 -17.911
rtoes 19.4765
lfemur 11.5935 11.9331 -25.908
ltibia 1.35308
lfoot 28.6395 -1.21734
ltoes -16.9851
520
root 22.7576 17.1649 -6.64384 677.771 -82.4435 -664.538
lowerback 18.8551 -2.28315 -2.37922
upperback 8.28008 -3.99797 -2.84957
thorax -1.69142 -2.19896 -0.868456
lowerneck 6.97139 0.178868 3.11737
upperneck -20.8443 0.629927 1.52653
head -7.54833 -0.263981 -0.0531527
rclavicle 1.35174e-014 2.82274e-014
rhumerus -34.2429 -6.16368 -86.8461
rradius 27.6689
rwrist 5.27582
rhand -21.5873 -10.2434
rfingers 7.12502
rthumb 4.80727 -40.1689
lclavicle 1.35174e-014 2.82274e-014
lhumerus -36.8746 5.29153 82.4025
lradius 29.6441
lwrist 20.1885
lhand -21.0562 14.6811
lfingers 7.12502
lthumb 5.32012 44.5943
rfemur -51.1501 -0.545445 15.5121
rtibia 39.1009
rfoot 14.6056 -15.4795
rtoes 17.0276
lfemur 10.3298 11.6543 -25.644
ltibia 4.9327
lfoot 27.8924 -1.45405
ltoes -15.9683
521
root 22.5607 17.1094 -6.6529 678.894 -82.2265 -665.666
lowerback 18.8735 -2.34166 -2.21756
upperback 8.19972 -4.04185 -2.84663
thorax -1.79771 -2.2125 -0.943236
lowerneck 6.97454 0.124271 3.07072
upperneck -20.7682 0.551621 1.5378
head -7.52444 -0.295479 -0.0354195
rclavicle 2.62396e-014 -3.37934e-014
rhumerus -34.3685 -6.2186 -86.7644
rradius 27.5414
rwrist 5.28233
rhand -21.5704 -10.1999
rfingers 7.12502
rthumb 4.82358 -40.125
lclavicle 2.62396e-014 -3.37934e-014
lhumerus -37.0181 5.47812 82.2657
lradius 29.4841
lwrist 20.1403
lhand -21.121 14.7221
lfingers 7.12502
lthumb 5.25753 44.6369
rfemur -50.9727 -0.623304 15.6291
rtibia 40.4678
rfoot 12.7804 -13.3879
rtoes 14.3971
lfemur 9.60606 11.4412 -25.3679
ltibia 7.36302
lfoot 27.8138 -1.65406
ltoes -15.4357
522
root 22.37 17.0628 -6.66051 679.903 -82.1626 -666.669
lowerback 18.9881 -2.37923 -1.95936
upperback 8.09838 -4.04551 -2.83261
thorax -1.98148 -2.20384 -1.06289
lowerneck 6.97381 0.0775712 3.01903
upperneck -20.7062 0.484986 1.5592
head -7.50445 -0.322612 -0.0144578
rclavicle -3.81667e-014 -3.73715e-014
rhumerus -34.4556 -6.26531 -86.6944
rradius 27.3937
rwrist 5.29555
rhand -21.5883 -10.1592
rfingers 7.12502
rthumb 4.80634 -40.0847
lclavicle -3.81667e-014 -3.73715e-014
lhumerus -37.1605 5.66535 82.1256
lradius 29.3199
lwrist 20.071
lhand -21.2415 14.7799
lfingers 7.12502
lthumb 5.14114 44.6975
rfemur -50.8414 -0.600794 15.8622
rtibia 41.7695
rfoot 11.1258 -11.7669
rtoes 11.8687
lfemur 8.9444 11.3543 -25.0349
ltibia 9.55242
lfoot 28.0227 -1.97016
ltoes -15.2907
